<svg id="Layer_1" data-name="Layer 1" xmlns="http://www.w3.org/2000/svg" viewBox="0 0 929.56 928.84"><defs><style>.cls-1{fill:#e92627;}.cls-2{fill:#0b0e0e;}.cls-3{fill:#fff;}</style></defs><title>4</title><path class="cls-1" d="M241.36,655.71c-1.83-69.37,12.55-140.42,39-202.51C306.57,391.77,347.33,338,397,293.92c5.39-4.79,10.78-9.57,16.28-14.22A441.7,441.7,0,0,1,559.64,198c58.9-19.42,118.37-23.27,180-21.3,46.45,1.48,90.8,12.08,133.91,28.62A455,455,0,0,1,991.9,272.52c31.1,24.36,63.16,52.32,84.22,86.1,3.17,5.08,6.13,10.31,9.7,15.12,3.86,5.18,8.39,9.82,12.52,14.79,28.57,34.33,44.88,84.72,57.11,127,14.93,51.65,16.7,104.32,14.59,157.56-2.38,59.91-18,116.39-44.11,169.8a464.74,464.74,0,0,1-78.75,114.57c-32.36,34.38-71.79,68.57-115.15,88a114.14,114.14,0,0,0-10.47,5c-2.76,1.58-5.33,3.45-8,5.2A155.51,155.51,0,0,1,894.83,1066c-107.73,51.39-248.1,50.31-358.06,7.34q-4.47-1.75-8.92-3.57c-47.38-19.35-90.18-46.4-128.55-80.24a469.51,469.51,0,0,1-97.05-119c-24.15-42-40-86.94-50.87-134A408.84,408.84,0,0,1,241.36,655.71Z" transform="translate(-241.2 -176.28)"/><path class="cls-2" d="M773.55,638q0-185.53,0-371.08c0-18.56,1.47-19.09,19.44-13.89,34.36,9.94,67.51,22.31,98.56,40.49C942,323.09,983,362.32,1016.14,410.16c23,33.13,39.89,69.07,52.43,107.33a388.33,388.33,0,0,1,19.65,122.88c-.06,23.14-.82,46.22-4.9,68.91a372.18,372.18,0,0,1-25.52,83.59C1041.47,830.18,1021.11,865,994.71,896c-40.8,47.9-89.42,85.31-147.77,110-21.44,9.07-43.54,15.47-65.76,21.86-4.85,1.4-7.6.39-7.68-5.11-.06-4.23-.4-8.45-.4-12.68q0-186,0-372Z" transform="translate(-241.2 -176.28)"/><path class="cls-2" d="M639.94,639.91q0,190.43.13,380.84c0,6.51-1.62,9.27-8.23,7.56-28.31-7.31-55.84-16.72-82.25-29.43C491.06,970.69,443,930,403.94,878.3c-21.51-28.48-37.37-60-51.61-92.62-10.13-23.23-16.92-47.37-21.47-71.79-7.64-41-7.76-82.68-2.74-124.28a352.26,352.26,0,0,1,13.78-65.19c12.33-38.56,28.81-75.32,51.46-109.12,19.86-29.63,42.68-56.94,69.75-80,41.54-35.33,87.95-62.49,141.13-77,9.31-2.54,18.33-6,28-7.34,5-.68,7.23.78,7,6.1-.32,6.5-.2,13-.2,19.53V639.91Z" transform="translate(-241.2 -176.28)"/><path class="cls-3" d="M1013.68,560.54c-3.95,28.68-12.94,55.62-24.69,81.67a399.46,399.46,0,0,1-32.81,58.48c-4.63,6.88-9.9,11.22-18.23,12.89-27.66,5.54-55.27,8.71-82.92.48-13.28-4-25-10.71-34.36-21.23-2.72-3.05-3.16-5,.7-7.49q95-62.12,189.83-124.39C1011.68,560.63,1012.43,560.73,1013.68,560.54Z" transform="translate(-241.2 -176.28)"/><path class="cls-3" d="M396.2,560.08c22.54,14.77,43.68,28.6,64.81,42.46,41.29,27.07,82.45,54.35,124,81.07,7.65,4.93,8,8,1.45,14-15.9,14.62-35.12,20.56-55.92,22.25-21.28,1.73-42.18-1.37-62.81-6.52-3.49-.87-6.58-2.11-8.88-5.33C427.31,663.88,405.56,615.64,396.2,560.08Z" transform="translate(-241.2 -176.28)"/></svg>