<svg width="48" height="48" viewBox="0 0 24 24" fill="none" xmlns="http://www.w3.org/2000/svg">
<g id="ic/social/tenchat">
<path id="Vector" fill-rule="evenodd" clip-rule="evenodd" d="M18.043 3.7826C14.0833 2.73913 9.91696 2.73913 5.95734 3.7826C5.30521 3.95512 4.71511 4.30547 4.25421 4.79377C3.79331 5.28207 3.48013 5.8887 3.35032 6.54458C2.88323 8.91238 2.88323 11.3473 3.35032 13.7151C3.48013 14.371 3.79331 14.9776 4.25421 15.4659C4.71511 15.9542 5.30521 16.3046 5.95734 16.4771C8.35179 17.1089 10.8321 17.3617 13.3063 17.226C13.6282 17.2101 13.9447 17.311 14.1914 17.5181L17.1042 19.9614C17.1312 19.9824 17.1637 19.9955 17.1978 19.999C17.232 20.0026 17.2664 19.9965 17.2972 19.9815C17.3281 19.9665 17.354 19.9432 17.372 19.9143C17.3901 19.8854 17.3995 19.852 17.3993 19.818V16.987C17.3993 16.7852 17.5441 16.6046 17.7426 16.5621L18.043 16.4771C18.6951 16.3046 19.2852 15.9542 19.7461 15.4659C20.207 14.9776 20.5202 14.371 20.65 13.7151C21.1167 11.3515 21.1167 8.91351 20.65 6.54458C20.5202 5.8887 20.207 5.28207 19.7461 4.79377C19.2852 4.30547 18.6951 3.95512 18.043 3.7826ZM15.7524 6.15684C16.0206 6.15684 16.2406 6.37462 16.2406 6.6455V8.34518C16.2406 8.61076 16.026 8.82853 15.7524 8.82853H14.0359C13.7677 8.82853 13.5424 9.0463 13.5424 9.31719V13.9276C13.5424 14.1931 13.3278 14.4162 13.0542 14.4162H11.0909C10.961 14.4148 10.8368 14.3627 10.7454 14.2712C10.654 14.1797 10.6028 14.0563 10.6028 13.9276V9.3225C10.6028 9.05692 10.3828 8.83384 10.1146 8.83384H8.39807C8.12986 8.83384 7.90456 8.62138 7.90456 8.35049V6.65081C7.90456 6.38524 8.12449 6.16216 8.39807 6.16216H15.7471L15.7524 6.15684Z" fill="#FC3234"/>
</g>
</svg>
