<svg width="48" height="48" viewBox="0 0 48 48" fill="none" xmlns="http://www.w3.org/2000/svg">
<g id="ic/social/tg">
<path id="Vector" d="M40.8316 8.47998C41.9716 8.47998 42.8316 9.47998 42.3716 11.34L36.7916 37.64C36.4016 39.51 35.2716 39.96 33.7116 39.09L20.4016 29.26C20.3499 29.223 20.3079 29.1742 20.2789 29.1176C20.2499 29.0611 20.2347 28.9985 20.2347 28.935C20.2347 28.8715 20.2499 28.8088 20.2789 28.7523C20.3079 28.6958 20.3499 28.647 20.4016 28.61L35.7716 14.73C36.4716 14.11 35.6216 13.81 34.7016 14.37L15.4116 26.54C15.3531 26.5781 15.2866 26.6025 15.2173 26.6111C15.148 26.6198 15.0776 26.6126 15.0116 26.59L6.82155 24C5.00155 23.47 5.00155 22.22 7.23155 21.33L40.0016 8.68998C40.2614 8.5653 40.5436 8.4939 40.8316 8.47998Z" stroke="#68A7DD" stroke-width="2" stroke-linecap="round" stroke-linejoin="round"/>
</g>
</svg>
