<svg width="48" height="48" viewBox="0 0 48 48" fill="none" xmlns="http://www.w3.org/2000/svg">
<g id="ic/social/vk">
<g id="Vector">
<mask id="path-1-inside-1_1045_3809" fill="white">
<path fill-rule="evenodd" clip-rule="evenodd" d="M46.81 33.73C45.722 31.5389 44.2883 29.5373 42.564 27.802C41.9873 27.1503 41.3834 26.523 40.754 25.922L40.678 25.848C40.4443 25.621 40.2136 25.391 39.986 25.158C42.3432 21.8802 44.3603 18.3707 46.006 14.684L46.072 14.536L46.118 14.38C46.336 13.654 46.584 12.274 45.704 11.026C44.792 9.738 43.334 9.506 42.356 9.506H37.862C36.921 9.46312 35.9906 9.719 35.2039 10.237C34.4171 10.755 33.8144 11.5087 33.482 12.39C32.5148 14.6933 31.3039 16.8864 29.87 18.932V13.666C29.87 12.986 29.806 11.846 29.076 10.886C28.204 9.734 26.942 9.506 26.066 9.506H18.934C18.0033 9.48459 17.1001 9.82193 16.4113 10.4482C15.7226 11.0744 15.301 11.9415 15.234 12.87L15.228 12.96V13.05C15.228 14.02 15.612 14.736 15.92 15.186C16.058 15.388 16.204 15.572 16.298 15.688L16.318 15.714C16.418 15.838 16.484 15.92 16.55 16.012C16.726 16.248 16.976 16.616 17.048 17.564V20.51C15.6164 18.1126 14.4425 15.5705 13.546 12.926L13.53 12.882L13.514 12.84C13.27 12.202 12.88 11.274 12.098 10.566C11.186 9.736 10.106 9.506 9.124 9.506H4.564C3.57 9.506 2.372 9.738 1.478 10.68C0.6 11.608 0.5 12.72 0.5 13.308V13.576L0.556 13.836C1.8186 19.6976 4.42047 25.1874 8.158 29.876C9.86675 32.5706 12.1866 34.8245 14.9293 36.455C17.672 38.0854 20.7604 39.0464 23.944 39.26L24.026 39.266H24.11C25.562 39.266 27.076 39.14 28.214 38.382C29.748 37.358 29.87 35.788 29.87 35.004V32.728C30.264 33.048 30.752 33.476 31.35 34.052C32.074 34.776 32.65 35.404 33.144 35.952L33.408 36.244C33.792 36.672 34.17 37.094 34.514 37.44C34.946 37.874 35.48 38.352 36.148 38.706C36.874 39.088 37.636 39.262 38.444 39.262H43.006C43.968 39.262 45.346 39.034 46.316 37.91C47.372 36.686 47.292 35.184 46.96 34.106L46.9 33.912L46.81 33.73ZM35.37 33.942C34.7501 33.2491 34.1119 32.5729 33.456 31.914L33.45 31.908C30.736 29.292 29.47 28.838 28.574 28.838C28.096 28.838 27.57 28.89 27.228 29.318C27.074 29.5222 26.973 29.7613 26.934 30.014C26.8858 30.3075 26.8644 30.6047 26.87 30.902V35.004C26.87 35.514 26.786 35.728 26.55 35.884C26.236 36.094 25.566 36.264 24.128 36.264C21.3964 36.0781 18.748 35.2466 16.4004 33.8378C14.0527 32.4289 12.073 30.483 10.624 28.16L10.608 28.134L10.588 28.11C7.10623 23.7763 4.67969 18.6925 3.5 13.26C3.508 13 3.564 12.842 3.656 12.746C3.75 12.646 3.98 12.506 4.564 12.506H9.124C9.63 12.506 9.894 12.618 10.084 12.788C10.296 12.984 10.484 13.314 10.708 13.902C11.828 17.194 13.34 20.274 14.774 22.536C15.49 23.668 16.194 24.61 16.83 25.276C17.148 25.608 17.458 25.884 17.756 26.08C18.042 26.268 18.368 26.418 18.704 26.418C18.88 26.418 19.086 26.398 19.284 26.312C19.4978 26.2176 19.6739 26.0542 19.784 25.848C19.99 25.472 20.048 24.918 20.048 24.192V17.446C19.942 15.81 19.448 14.888 18.968 14.234C18.8708 14.1032 18.7708 13.9745 18.668 13.848L18.642 13.816C18.5567 13.7124 18.4753 13.6057 18.398 13.496C18.2995 13.3737 18.2403 13.2245 18.228 13.068C18.2437 12.9091 18.3195 12.7622 18.44 12.6573C18.5604 12.5525 18.7164 12.4976 18.876 12.504H26.066C26.478 12.504 26.616 12.604 26.686 12.698C26.786 12.828 26.87 13.098 26.87 13.666V22.722C26.87 23.798 27.366 24.526 28.086 24.526C28.914 24.526 29.512 24.024 30.556 22.98L30.574 22.96L30.59 22.942C32.9319 20.0866 34.8454 16.9052 36.27 13.498L36.278 13.474C36.3851 13.173 36.5876 12.9152 36.8549 12.7401C37.1221 12.565 37.4393 12.482 37.758 12.504H42.358C42.982 12.504 43.186 12.664 43.254 12.758C43.324 12.858 43.374 13.072 43.254 13.492C41.6112 17.1647 39.5803 20.6512 37.196 23.892L37.18 23.916C36.95 24.27 36.696 24.662 36.66 25.11C36.62 25.594 36.828 26.032 37.194 26.504C37.46 26.896 38.01 27.434 38.568 27.98L38.62 28.032C39.204 28.604 39.838 29.224 40.346 29.824L40.36 29.838L40.374 29.854C41.8888 31.365 43.1485 33.1117 44.104 35.026C44.256 35.546 44.164 35.814 44.044 35.952C43.906 36.112 43.596 36.262 43.008 36.262H38.444C38.1329 36.2696 37.8251 36.1973 37.55 36.052C37.2128 35.8559 36.9068 35.6105 36.642 35.324C36.356 35.038 36.046 34.692 35.666 34.27L35.372 33.942H35.37Z"/>
</mask>
<path fill-rule="evenodd" clip-rule="evenodd" d="M46.81 33.73C45.722 31.5389 44.2883 29.5373 42.564 27.802C41.9873 27.1503 41.3834 26.523 40.754 25.922L40.678 25.848C40.4443 25.621 40.2136 25.391 39.986 25.158C42.3432 21.8802 44.3603 18.3707 46.006 14.684L46.072 14.536L46.118 14.38C46.336 13.654 46.584 12.274 45.704 11.026C44.792 9.738 43.334 9.506 42.356 9.506H37.862C36.921 9.46312 35.9906 9.719 35.2039 10.237C34.4171 10.755 33.8144 11.5087 33.482 12.39C32.5148 14.6933 31.3039 16.8864 29.87 18.932V13.666C29.87 12.986 29.806 11.846 29.076 10.886C28.204 9.734 26.942 9.506 26.066 9.506H18.934C18.0033 9.48459 17.1001 9.82193 16.4113 10.4482C15.7226 11.0744 15.301 11.9415 15.234 12.87L15.228 12.96V13.05C15.228 14.02 15.612 14.736 15.92 15.186C16.058 15.388 16.204 15.572 16.298 15.688L16.318 15.714C16.418 15.838 16.484 15.92 16.55 16.012C16.726 16.248 16.976 16.616 17.048 17.564V20.51C15.6164 18.1126 14.4425 15.5705 13.546 12.926L13.53 12.882L13.514 12.84C13.27 12.202 12.88 11.274 12.098 10.566C11.186 9.736 10.106 9.506 9.124 9.506H4.564C3.57 9.506 2.372 9.738 1.478 10.68C0.6 11.608 0.5 12.72 0.5 13.308V13.576L0.556 13.836C1.8186 19.6976 4.42047 25.1874 8.158 29.876C9.86675 32.5706 12.1866 34.8245 14.9293 36.455C17.672 38.0854 20.7604 39.0464 23.944 39.26L24.026 39.266H24.11C25.562 39.266 27.076 39.14 28.214 38.382C29.748 37.358 29.87 35.788 29.87 35.004V32.728C30.264 33.048 30.752 33.476 31.35 34.052C32.074 34.776 32.65 35.404 33.144 35.952L33.408 36.244C33.792 36.672 34.17 37.094 34.514 37.44C34.946 37.874 35.48 38.352 36.148 38.706C36.874 39.088 37.636 39.262 38.444 39.262H43.006C43.968 39.262 45.346 39.034 46.316 37.91C47.372 36.686 47.292 35.184 46.96 34.106L46.9 33.912L46.81 33.73ZM35.37 33.942C34.7501 33.2491 34.1119 32.5729 33.456 31.914L33.45 31.908C30.736 29.292 29.47 28.838 28.574 28.838C28.096 28.838 27.57 28.89 27.228 29.318C27.074 29.5222 26.973 29.7613 26.934 30.014C26.8858 30.3075 26.8644 30.6047 26.87 30.902V35.004C26.87 35.514 26.786 35.728 26.55 35.884C26.236 36.094 25.566 36.264 24.128 36.264C21.3964 36.0781 18.748 35.2466 16.4004 33.8378C14.0527 32.4289 12.073 30.483 10.624 28.16L10.608 28.134L10.588 28.11C7.10623 23.7763 4.67969 18.6925 3.5 13.26C3.508 13 3.564 12.842 3.656 12.746C3.75 12.646 3.98 12.506 4.564 12.506H9.124C9.63 12.506 9.894 12.618 10.084 12.788C10.296 12.984 10.484 13.314 10.708 13.902C11.828 17.194 13.34 20.274 14.774 22.536C15.49 23.668 16.194 24.61 16.83 25.276C17.148 25.608 17.458 25.884 17.756 26.08C18.042 26.268 18.368 26.418 18.704 26.418C18.88 26.418 19.086 26.398 19.284 26.312C19.4978 26.2176 19.6739 26.0542 19.784 25.848C19.99 25.472 20.048 24.918 20.048 24.192V17.446C19.942 15.81 19.448 14.888 18.968 14.234C18.8708 14.1032 18.7708 13.9745 18.668 13.848L18.642 13.816C18.5567 13.7124 18.4753 13.6057 18.398 13.496C18.2995 13.3737 18.2403 13.2245 18.228 13.068C18.2437 12.9091 18.3195 12.7622 18.44 12.6573C18.5604 12.5525 18.7164 12.4976 18.876 12.504H26.066C26.478 12.504 26.616 12.604 26.686 12.698C26.786 12.828 26.87 13.098 26.87 13.666V22.722C26.87 23.798 27.366 24.526 28.086 24.526C28.914 24.526 29.512 24.024 30.556 22.98L30.574 22.96L30.59 22.942C32.9319 20.0866 34.8454 16.9052 36.27 13.498L36.278 13.474C36.3851 13.173 36.5876 12.9152 36.8549 12.7401C37.1221 12.565 37.4393 12.482 37.758 12.504H42.358C42.982 12.504 43.186 12.664 43.254 12.758C43.324 12.858 43.374 13.072 43.254 13.492C41.6112 17.1647 39.5803 20.6512 37.196 23.892L37.18 23.916C36.95 24.27 36.696 24.662 36.66 25.11C36.62 25.594 36.828 26.032 37.194 26.504C37.46 26.896 38.01 27.434 38.568 27.98L38.62 28.032C39.204 28.604 39.838 29.224 40.346 29.824L40.36 29.838L40.374 29.854C41.8888 31.365 43.1485 33.1117 44.104 35.026C44.256 35.546 44.164 35.814 44.044 35.952C43.906 36.112 43.596 36.262 43.008 36.262H38.444C38.1329 36.2696 37.8251 36.1973 37.55 36.052C37.2128 35.8559 36.9068 35.6105 36.642 35.324C36.356 35.038 36.046 34.692 35.666 34.27L35.372 33.942H35.37Z" fill="#2D7AF6" stroke="#232323" mask="url(#path-1-inside-1_1045_3809)"/>
</g>
</g>
</svg>
